<?xml version="1.0" encoding="utf-8"?>
<!-- Generator: Adobe Illustrator 24.1.2, SVG Export Plug-In . SVG Version: 6.00 Build 0)  -->
<svg version="1.1" id="Layer_1" xmlns="http://www.w3.org/2000/svg" xmlns:xlink="http://www.w3.org/1999/xlink" x="0px" y="0px"
	 viewBox="0 0 165.5865631 62.7499199" style="enable-background:new 0 0 165.5865631 62.7499199;" xml:space="preserve">
<style type="text/css">
	.st0{fill:#0DCEFF;}
	.st1{fill:#1A1A1A;}
	.st2{fill:#CDF700;}
	.st3{fill:#FFFFFF;}
</style>
<g>
	<path class="st0" d="M1.5732723,59.1749115c0.9831573,0.1782036,1.2510706,0.4461174,1.4298817,0.8037415
		c0.1788108,0.4473305,0.1788108,0.8049507,0.0897086,1.2522812v0.0884972
		c-0.1788111,0.7152443-0.7152441,1.0728645-1.5195903,1.0728645c-0.6261414-0.1782036-1.0728657-0.4473305-1.3407791-0.8934479
		c-0.2685195-0.3576202-0.2685195-0.8049507-0.178811-1.2522812C0.3215957,59.5325317,0.8580286,59.1749115,1.5732723,59.1749115z"
		/>
	<path class="st0" d="M0.1427847,40.3142967c0-0.3576241,0.0897086-0.6255379,0.2685195-0.8946609L30.9813118,0.537039
		C31.2492237,0.1794171,31.6965542,0,32.14328,0c0.3576202,0,0.6255341,0.0897086,0.8940544,0.2691256
		c0.8043442,0.6255353,0.8934479,1.2510705,0.2679138,2.0560229L3.0928626,40.8501205v14.92799
		c0,0.8037376-0.7152441,1.5189819-1.5195903,1.5189819s-1.4304876-0.7152443-1.4304876-1.5189819V40.3142967z"/>
	<path class="st0" d="M0.1427847,27.3526211V1.6984011c0-0.8037401,0.6261414-1.518984,1.4304876-1.518984
		s1.5195903,0.7152438,1.5195903,1.518984v25.6542206c0,0.8049526-0.7152441,1.5201969-1.5195903,1.5201969
		S0.1427847,28.1575737,0.1427847,27.3526211z"/>
	<path class="st1" d="M10.9587259,18.2350807c0,0.8049526-0.7152433,1.5201969-1.5195894,1.5201969
		s-1.4304876-0.7152443-1.4304876-1.5201969V9.6545792c0-0.9831572,0.4473305-1.4304876,1.4304876-1.4304876
		c0.8940544,0,1.5195894,0.5358267,1.5195894,1.4304876V18.2350807z"/>
	<path class="st0" d="M8.0086489,60.9618073V44.4251289c0-0.4461174,0.0897083-0.7140312,0.2685194-0.8934479l5.2740135-6.7038956
		c0.2679138-0.3576241,0.7146378-0.5358276,1.1619682-0.5358276c0.5358267,0,0.8934488,0.1782036,1.1619682,0.5358276
		l17.8768539,23.4187813c0.5364342,0.8049507,0.4473305,1.4304848-0.2679138,2.0560226
		c-0.2679138,0.1794167-0.5364342,0.2691231-0.8940544,0.2691231c-0.4467239,0-0.8934498-0.1794167-1.1619682-0.5370369
		L14.71315,40.1348763l-3.7544241,4.7375832v16.0893478c0,0.8049545-0.7152433,1.4304886-1.5195894,1.4304886
		C8.4559793,62.3922958,8.0086489,61.9449654,8.0086489,60.9618073z"/>
	<path class="st1" d="M44.4788094,2.3251486L22.0425816,30.749424l22.5253315,29.3189354
		c0.2685204,0.2679138,0.3576241,0.6255379,0.2685204,0.9831581c-0.0897102,0.4473305-0.2685204,0.8049507-0.6261406,1.0728645
		c-0.1788139,0.1782074-0.4467239,0.2679138-0.8934517,0.2679138c-0.4473305,0-0.8049507-0.1782036-1.1619682-0.5358276
		L19.0034008,31.6428719c-0.4467239-0.6255341-0.4467239-1.1613617,0-1.7868958L42.2439766,0.537039
		C42.5118904,0.1794171,42.8695107,0,43.3168411,0c0.4467278,0,0.7146378,0.0897086,0.9831581,0.2691256
		C45.1043472,0.8946609,45.1043472,1.6099048,44.4788094,2.3251486z"/>
	<path class="st0" d="M76.4738541,2.1457314c0.0897064,0.3576219,0.0897064,0.7152438-0.0891037,1.072866
		c-0.2679138,0.3576219-0.536438,0.6255352-0.9831619,0.7152438c-7.86586,1.9663143-13.1398773,8.0446739-13.1398773,16.2675533
		c0,0.8049526-0.7152405,1.5201969-1.5195885,1.5201969c-0.9831581,0-1.4304886-0.5358276-1.4304886-1.5201969
		c0-9.9212799,6.3468819-16.6251755,15.3747139-19.1285286C75.6695023,1.0728657,76.2059402,1.0728657,76.4738541,2.1457314z"/>
	<path class="st0" d="M60.9209328,41.297451c0.804348,0,1.5195923,0.7152443,1.5195923,1.5189857
		c0,9.6545792,8.670208,16.6263885,17.8774605,16.9840088c0.4467239,0.0884972,0.8043442,0.2679138,1.072258,0.5358276
		c0.2685165,0.2679138,0.3576202,0.6255341,0.2685165,1.0728645c0,0.8934517-0.4473267,1.3407822-1.4304886,1.3407822
		c-11.0838547-0.7152443-20.7378273-8.4920082-20.7378273-19.9334831
		C59.4904442,42.0126953,60.1165886,41.297451,60.9209328,41.297451z"/>
	<path class="st1" d="M85.1446686,7.151226c5.2740097,0,10.548027,1.3407793,13.676918,5.900156
		c1.0716476,1.5189838,1.6971893,2.8597631,1.9663086,4.022337c0.1782074,1.25107,0.2679138,1.876606,0.2679138,1.9663143
		c0,5.0054951-1.8778152,9.9212818-6.5256882,12.2464294c4.6478729,2.9494724,6.4359818,6.6141872,6.4359818,12.155508
		c0,4.3799591-3.3070908,8.5817146-7.0615158,10.548027c-2.4136429,1.2510719-5.2740173,1.876606-8.7599182,1.876606h-0.2685242
		c-8.8490219,0-17.2513123-3.1276741-17.2513123-13.0501671c0-0.8037415,0.7152405-1.5189857,1.5195847-1.5189857
		c0.8940582,0,1.4298859,0.6255379,1.4298859,1.5189857c0,8.402298,7.7767563,10.1006966,14.4806519,10.1006966h0.0897141
		c5.5419235,0,10.9953537-2.1445198,12.6040497-7.8652573c0.1782074-0.9831581,0.2679138-1.520195,0.2679138-1.6099052
		c0-1.2510681-0.1794205-2.50214-0.4473343-3.753212c-1.1613617-3.6659279-3.664711-6.6153984-7.7767563-6.8833122
		c-0.6255341-0.1782036-1.3407822-0.8049507-1.3407822-1.4304867c0-0.8934498,0.5364304-1.3407803,1.3407822-1.5189838
		c0.4473267-0.0897102,0.8940506-0.1794186,1.3407745-0.3576221c0.4473343-0.0897083,0.8940582-0.2679138,1.3407822-0.5370388
		c4.1120453-1.6086941,5.6322403-5.631031,5.6322403-9.8315735c0-1.6099052-0.8049545-3.2185965-1.7881088-4.4696674
		c-2.1457291-3.0391798-5.8995514-4.5593767-11.1735611-4.5593767c-6.4359818,0-14.7485733,2.4136448-14.7485733,10.1006975
		c0,0.9843693-0.4473267,1.5201969-1.4304886,1.5201969c-0.8043442,0-1.5195923-0.7152443-1.5195923-1.5201969
		C67.4460144,10.8159418,77.1890945,7.151226,85.1446686,7.151226z"/>
	<path class="st0" d="M80.5858994,32.9836502c1.7874985,0.4473305,3.3070908,0.8946609,4.6478729,1.4304886
		c2.4136429,1.2510719,4.2011414,2.5033531,5.8104401,4.7375832c0.6255417,1.0728645,1.2510757,2.3239365,1.8772125,3.8441315
		c0.0897141,0.3576202,0.0897141,0.7152443,0,1.0728645c-0.1781998,0.4461174-0.4473267,0.7140312-0.8049469,0.8037415
		c-0.7146378,0-1.608696,0-1.9663162-0.8037415c-2.1451263-6.0783577-5.7207413-7.151226-11.3517685-8.4920044
		c-0.8049545-0.0897102-1.1625748-0.6255341-1.1625748-1.4304886v-5.0952015c0-0.8037415,0.3576202-1.3407803,1.0728683-1.4304886
		c1.5195847-0.4461174,2.8603668-0.8037395,4.0223312-1.1613617c4.1120529-1.25107,5.8995514-3.5762196,7.4191437-7.3294315
		c0.2685165-0.6267471,0.7152405-0.8946609,1.4304886-0.8946609c0.8934479,0.1794167,1.1625748,0.4473305,1.3407745,0.8049526
		c0.0897141,0.4473305,0.0897141,0.8049526,0,1.1613617c-2.6815567,6.4359837-6.0783539,8.3138008-12.3355255,9.922493V32.9836502z"
		/>
	<path class="st0" d="M78.440773,1.2522829c0.1788101-0.7152438,0.7146378-1.0728657,1.5195847-1.0728657
		c0.9831619,0.1782048,1.2510757,0.4473304,1.4298859,0.8049524C81.5690536,1.4304876,81.5690536,1.7881097,81.47995,2.23544
		v0.0897086c-0.2685165,0.7140317-0.8049545,1.0716536-1.5195923,1.0716536
		C78.5298767,3.0391803,77.9934387,2.3251486,78.440773,1.2522829z"/>
	<path class="st0" d="M120.5359039,61.1412277V9.5648708c0-0.8049526,0.6255341-1.5189838,1.4304886-1.5189838h15.4638138
		c8.2228699,0,14.8382721,4.9157858,18.2350769,12.2452164c1.3407745,3.3070946,2.0560303,6.9718094,2.0560303,10.9953594
		c0,10.0994854-4.5593872,19.6643581-14.66008,22.7932453c-1.0728607,0-1.6983948-0.3576202-1.8766022-0.9831581
		c-0.0897064-0.4473305-0.0897064-0.8049507,0.0897064-1.1625748c0.1782074-0.3576202,0.4461212-0.6255341,0.8934479-0.7152405
		c8.9381256-2.4136467,12.6028442-11.4414787,12.6028442-19.932272c0-8.671423-3.3070984-15.7329397-11.4414825-19.2182388
		c-1.9663086-0.7152443-3.9326324-1.0728664-5.898941-1.0728664h-13.9448318v50.1458702
		c0,0.8037376-0.7152481,1.5189819-1.5189819,1.5189819C121.161438,62.6602097,120.5359039,61.9449654,120.5359039,61.1412277z"/>
	<path class="st1" d="M129.7431488,3.3968022c-0.8049469,0-1.5201874-0.6255352-1.5201874-1.4292755
		c0-0.8049524,0.7152405-1.5201962,1.5201874-1.5201962h9.6533661c10.2801208,0,19.3964539,6.9718089,23.3302917,16.2687664
		c1.8766022,4.4696674,2.8597565,9.5636597,2.8597565,15.1959019c0,16.7148857-8.6702118,30.6597137-26.1900482,30.6597137
		h-9.5636597c-0.8049469,0-1.5201874-0.6267471-1.5201874-1.4304848v-44.782753c0-0.9831562,0.5358276-1.520196,1.5201874-1.520196
		c0.9831543,0,1.4292755,0.5370398,1.4292755,1.520196v43.2625542h8.1343842
		c16.6263885,0,23.2405853-13.1398773,23.2405853-27.7090302c0-11.6208954-4.7375946-23.2405777-16.3572693-27.2629128
		c-2.6815643-0.8049524-5.0054932-1.2522829-6.883316-1.2522829H129.7431488z"/>
	<path class="st0" d="M136.2676239,54.1694183c-0.2679138-0.3576241-0.2679138-0.8049545-0.0884857-1.252285
		c0.0884857-0.5358276,0.3576202-0.8934479,0.8037415-0.9831581c0.4473267-0.0897064,0.8049469-0.0897064,1.2522736-0.0897064
		c0.4461212,0.1794167,0.714035,0.4473305,0.8934479,0.8049507c0.1782074,0.4473305,0.1782074,0.8049545,0.0897064,1.2510719
		v0.0897064c-0.2691193,0.7152443-0.8049469,1.0728683-1.5201874,1.0728683
		C136.9828796,54.8834496,136.5367584,54.6155357,136.2676239,54.1694183z"/>
</g>
</svg>
